<?xml version="1.0" encoding="utf-8"?>
<!-- Generator: Adobe Illustrator 23.0.5, SVG Export Plug-In . SVG Version: 6.00 Build 0)  -->
<svg version="1.1" id="Layer_1" xmlns="http://www.w3.org/2000/svg" xmlns:xlink="http://www.w3.org/1999/xlink" x="0px" y="0px"
	 viewBox="0 0 426.2 441.6" style="enable-background:new 0 0 426.2 441.6;" xml:space="preserve">
<style type="text/css">
	.st0{fill:#FFFFFF;}
	.st1{fill:none;stroke:#000000;stroke-width:2;stroke-miterlimit:10;}
</style>
<g>
	<line x1="121.3" y1="147.9" x2="117.3" y2="139.9"/>
	<g>
		<line x1="121.3" y1="147.9" x2="117.3" y2="139.9"/>
		<polygon points="209.1,173.3 209.1,335.7 191.5,325.5 174,315.4 159.9,286.9 156.4,279.8 145.9,258.4 138.8,244.2 131.8,229.9 
			121.3,208.5 117.7,201.4 103.7,172.8 103.7,274.8 86,264.6 68.4,254.5 68.4,92.1 86,102.3 103.7,112.4 117.3,139.9 121.3,147.9 
			131.5,168.6 138.8,183.4 145.6,197.1 156.4,218.9 159.8,225.7 174,254.3 174,153 191.5,163.2 		"/>
	</g>
	<g>
		<polygon points="252.1,193.6 252.1,214 269.6,203.8 287.2,193.7 304.8,183.5 322.4,173.3 340,163.1 357.6,152.9 357.6,254.5 
			340,264.6 322.4,274.8 304.8,285 287.2,295.1 269.6,305.3 252.1,315.4 234.5,325.5 217,335.7 217,295.4 234.5,285.3 252.1,275.1 
			269.6,265 287.2,254.8 304.8,244.6 322.4,234.5 322.4,214.1 304.8,224.2 287.2,234.4 269.6,244.6 252.1,254.7 234.5,264.9 
			217,275 217,173.3 234.5,163.2 252.1,153 269.6,142.9 287.2,132.7 304.8,122.6 322.4,112.4 340,102.3 357.6,92.1 357.6,132.5 
			340,142.7 322.4,152.9 304.8,163.1 287.2,173.3 269.6,183.5 		"/>
	</g>
	<g>
		<polyline points="301.1,54.9 283.5,44.7 265.9,34.6 248.3,24.4 230.7,14.3 213.1,4.1 213.4,3.9 231,14.1 248.6,24.3 266.2,34.4 
			283.8,44.6 301.4,54.7 		"/>
		<polygon points="248.2,146.1 248.3,146.2 230.6,156.3 213,166.5 195.4,156.4 177.8,146.3 160.2,136.2 142.6,126.1 125,116 
			107.3,105.8 89.7,95.7 72,85.6 72.5,85.3 90.1,95.5 107.7,105.6 125.3,115.8 160.5,136.1 178,146.2 195.6,156.3 213,166.4 
			230.5,156.3 		"/>
		<polygon points="301.2,115.6 283.5,125.8 265.9,136 265.8,135.9 283.4,125.8 301.1,115.6 		"/>
		<line x1="301.2" y1="115.6" x2="301.1" y2="115.6"/>
		<line x1="283.5" y1="125.8" x2="283.4" y2="125.8"/>
		<line x1="265.9" y1="136" x2="265.8" y2="135.9"/>
		<line x1="248.3" y1="146.2" x2="248.2" y2="146.1"/>
		<line x1="230.6" y1="156.3" x2="230.5" y2="156.3"/>
		<polygon points="283.6,105.5 301.1,115.6 283.4,125.8 265.8,135.9 248.3,125.9 230.8,115.8 213.2,105.7 195.6,95.5 177.9,85.4 
			160.3,75.3 142.7,85.5 177.9,105.7 195.5,115.8 213.1,126 230.7,136.1 248.2,146.1 230.5,156.3 213,166.4 195.6,156.3 178,146.2 
			160.5,136.1 125.3,115.8 107.7,105.6 90.1,95.5 72.5,85.3 89.7,75.4 107.3,65.2 125,55 160.4,34.5 178.1,24.3 195.7,14.1 
			213.1,4.1 230.7,14.3 248.3,24.4 265.9,34.6 283.5,44.7 301.1,54.9 283.7,64.9 266.1,75.1 248.5,65 230.9,54.8 213.3,44.7 
			195.7,54.9 213.3,65 230.9,75.1 248.5,85.3 266,95.4 		"/>
		<line x1="195.6" y1="156.3" x2="195.4" y2="156.4"/>
		<line x1="178" y1="146.2" x2="177.8" y2="146.3"/>
		<line x1="301.4" y1="54.7" x2="301.1" y2="54.9"/>
		<line x1="160.5" y1="136.1" x2="160.2" y2="136.2"/>
		<line x1="283.8" y1="44.6" x2="283.5" y2="44.7"/>
		<line x1="142.9" y1="125.9" x2="142.6" y2="126.1"/>
		<line x1="266.2" y1="34.4" x2="265.9" y2="34.6"/>
		<line x1="125.3" y1="115.8" x2="125" y2="116"/>
		<line x1="248.6" y1="24.3" x2="248.3" y2="24.4"/>
		<line x1="107.7" y1="105.6" x2="107.3" y2="105.8"/>
		<line x1="231" y1="14.1" x2="230.7" y2="14.3"/>
		<line x1="90.1" y1="95.5" x2="89.7" y2="95.7"/>
	</g>
	<g>
		<g>
			<polygon points="316,87 310,81.1 310,112.2 			"/>
			<polygon points="304,87 310,81.1 310,112.2 			"/>
		</g>
		<g>
			<polygon points="304,75.3 310,81.1 310,50.1 			"/>
			<polygon points="316,75.3 310,81.1 310,50.1 			"/>
		</g>
		<g>
			<polygon points="315.9,75.1 310,81.2 341.1,81.2 			"/>
			<polygon points="315.9,87.2 310,81.1 341.1,81.1 			"/>
		</g>
		<g>
			<polygon points="304.1,87.2 310,81.1 278.9,81.1 			"/>
			<polygon points="304.1,75.1 310,81.1 278.9,81.1 			"/>
		</g>
	</g>
	<g>
		<g>
			<path class="st0" d="M41.2,406.1h-2.4v-35.7h2.5l5.6,25v-25h2.4v35.7h-2.4l-5.7-24.9V406.1z"/>
			<path class="st0" d="M70.1,404.8c-0.5,0.8-1.3,1.2-2.3,1.3h-4.2c-0.6,0-1.1-0.2-1.5-0.5c-0.4-0.3-0.7-0.6-1-1
				c-0.2-0.4-0.4-0.8-0.5-1.3c-0.1-0.5-0.2-1-0.2-1.5v-27.4c0-0.5,0.1-1.1,0.2-1.6s0.3-1,0.6-1.3s0.6-0.7,1-0.9
				c0.4-0.2,0.9-0.4,1.5-0.4h3.9c1,0.1,1.8,0.5,2.4,1.3s0.9,1.6,0.9,2.5v27.9C70.9,403.1,70.6,404,70.1,404.8z M63.1,402.8
				c0.2,0.4,0.7,0.7,1.6,0.7H67c0.6,0,1-0.2,1.2-0.6c0.2-0.4,0.3-1.1,0.3-1.9v-25.4c0-0.9-0.1-1.5-0.3-1.9c-0.2-0.4-0.6-0.6-1.2-0.6
				h-2.9c-0.3,0-0.6,0.2-0.9,0.7c-0.3,0.5-0.4,1.1-0.4,1.8v25.4C62.8,401.7,62.9,402.4,63.1,402.8z"/>
			<path class="st0" d="M82.1,370.3h5.7c0.5,0,1.1,0.2,1.6,0.7c0.6,0.5,1.1,1.2,1.5,2s0.8,1.9,1.1,3.2c0.3,1.2,0.4,2.6,0.4,4.1
				c0,2.7-0.3,4.9-0.9,6.5c-0.6,1.6-1.3,2.7-2.2,3.3c0.5,1,0.9,1.9,1.1,2.7c0.3,0.9,0.5,1.9,0.8,3.1v0l2.2,10.1h-2.7l-1.5-7.5
				c-0.3-1.5-0.6-2.7-0.8-3.6c-0.3-0.9-0.5-1.7-0.8-2.3c-0.2-0.6-0.5-1-0.7-1.3c-0.2-0.3-0.5-0.5-0.7-0.7h-1.9v15.4h-2.4V370.3z
				 M84.5,388.1h2.6c0.6,0,1-0.2,1.4-0.6s0.6-0.9,0.9-1.5c0.2-0.6,0.4-1.3,0.5-2.1s0.2-1.5,0.2-2.3c0-0.2,0-0.4,0-0.6s0-0.3,0-0.5
				c-0.1-0.9-0.2-1.7-0.3-2.6c-0.1-0.9-0.3-1.7-0.5-2.4c-0.2-0.7-0.6-1.3-1-1.8c-0.4-0.5-1-0.7-1.7-0.7h-2.2V388.1z"/>
			<path class="st0" d="M115.2,370.3v2.6h-4.1v33.1h-2.4V373h-4v-2.6H115.2z"/>
			<path class="st0" d="M134.4,389h-5.7v17.1h-2.4v-35.7h2.4v16h5.7v-16h2.4v35.7h-2.4V389z"/>
			<path class="st0" d="M150.3,375.5v9.5c0,0.4,0,0.8,0.1,1.1c0.1,0.3,0.4,0.4,1,0.4h4.2c0.2,0,0.5,0.1,0.8,0.2s0.6,0.3,0.9,0.6
				s0.5,0.6,0.7,1s0.3,0.8,0.3,1.2v12.5c0,1-0.2,2-0.7,2.8c-0.5,0.8-1.3,1.3-2.5,1.4h-3.9c-1-0.1-1.8-0.5-2.4-1.3s-0.9-1.6-0.9-2.5
				v-8.2h2.4v6.9c0,0.9,0.1,1.5,0.3,1.9s0.6,0.6,1.2,0.6h2.9c0.5,0,0.8-0.2,1-0.7c0.2-0.5,0.3-1.1,0.3-1.8v-10.4
				c0-0.5-0.1-0.9-0.3-1.1c-0.2-0.2-0.6-0.4-1.3-0.4h-3.5c-0.3,0-0.6-0.1-1-0.2c-0.3-0.1-0.7-0.3-1-0.5c-0.3-0.2-0.5-0.6-0.7-1
				c-0.2-0.4-0.3-0.9-0.3-1.4v-11.5c0-1,0.2-2,0.7-2.8c0.5-0.8,1.3-1.3,2.5-1.4h3.9c1,0.1,1.8,0.5,2.4,1.3s0.9,1.6,0.9,2.5v8.2H156
				v-6.8c0-0.9-0.1-1.5-0.3-1.9c-0.2-0.4-0.6-0.6-1.2-0.6h-2.9c-0.5,0-0.9,0.2-1,0.7C150.4,374.1,150.3,374.7,150.3,375.5z"/>
			<path class="st0" d="M180.1,370.3v2.6H176v33.1h-2.4V373h-4v-2.6H180.1z"/>
			<path class="st0" d="M189.9,406.1h-2.6l5.2-35.7h2.8l5.4,35.7H198l-4.2-28.4L189.9,406.1z"/>
			<path class="st0" d="M211.8,370.3h5.7c0.5,0,1.1,0.2,1.6,0.7c0.6,0.5,1.1,1.2,1.5,2c0.5,0.9,0.8,1.9,1.1,3.2
				c0.3,1.2,0.4,2.6,0.4,4.1c0,2.7-0.3,4.9-0.9,6.5c-0.6,1.6-1.3,2.7-2.2,3.3c0.5,1,0.9,1.9,1.1,2.7c0.3,0.9,0.5,1.9,0.8,3.1v0
				l2.2,10.1h-2.7l-1.5-7.5c-0.3-1.5-0.6-2.7-0.8-3.6c-0.3-0.9-0.5-1.7-0.8-2.3c-0.2-0.6-0.5-1-0.7-1.3c-0.2-0.3-0.5-0.5-0.7-0.7
				h-1.9v15.4h-2.4V370.3z M214.3,388.1h2.6c0.6,0,1-0.2,1.4-0.6c0.4-0.4,0.6-0.9,0.9-1.5s0.4-1.3,0.5-2.1s0.2-1.5,0.2-2.3
				c0-0.2,0-0.4,0-0.6s0-0.3,0-0.5c-0.1-0.9-0.2-1.7-0.3-2.6c-0.1-0.9-0.3-1.7-0.5-2.4c-0.2-0.7-0.6-1.3-1-1.8
				c-0.4-0.5-1-0.7-1.7-0.7h-2.2V388.1z"/>
			<path class="st0" d="M254.6,375.5v9.5c0,0.4,0,0.8,0.1,1.1c0.1,0.3,0.4,0.4,1,0.4h4.2c0.2,0,0.5,0.1,0.8,0.2
				c0.3,0.1,0.6,0.3,0.9,0.6s0.5,0.6,0.7,1c0.2,0.4,0.3,0.8,0.3,1.2v12.5c0,1-0.2,2-0.7,2.8c-0.5,0.8-1.3,1.3-2.5,1.4h-3.9
				c-1-0.1-1.8-0.5-2.4-1.3c-0.6-0.8-0.9-1.6-0.9-2.5v-8.2h2.4v6.9c0,0.9,0.1,1.5,0.3,1.9c0.2,0.4,0.6,0.6,1.2,0.6h2.9
				c0.5,0,0.8-0.2,1-0.7c0.2-0.5,0.3-1.1,0.3-1.8v-10.4c0-0.5-0.1-0.9-0.3-1.1c-0.2-0.2-0.6-0.4-1.3-0.4h-3.5c-0.3,0-0.6-0.1-1-0.2
				c-0.3-0.1-0.7-0.3-1-0.5c-0.3-0.2-0.5-0.6-0.7-1c-0.2-0.4-0.3-0.9-0.3-1.4v-11.5c0-1,0.2-2,0.7-2.8c0.5-0.8,1.3-1.3,2.5-1.4h3.9
				c1,0.1,1.8,0.5,2.4,1.3c0.6,0.8,0.9,1.6,0.9,2.5v8.2h-2.4v-6.8c0-0.9-0.1-1.5-0.3-1.9s-0.6-0.6-1.2-0.6h-2.9
				c-0.5,0-0.9,0.2-1,0.7C254.7,374.1,254.6,374.7,254.6,375.5z"/>
			<path class="st0" d="M284.4,370.3v2.6h-4.1v33.1h-2.4V373h-4v-2.6H284.4z"/>
			<path class="st0" d="M298.4,402.8c0.3,0.4,0.8,0.7,1.6,0.7h2.2c0.6,0,1-0.2,1.2-0.6c0.2-0.4,0.3-1.1,0.3-1.9v-30.6h2.4v31.8
				c0,1-0.3,1.8-0.8,2.6c-0.5,0.8-1.3,1.2-2.3,1.3h-4.2c-0.6,0-1.1-0.2-1.5-0.5c-0.4-0.3-0.7-0.6-1-1c-0.2-0.4-0.4-0.8-0.5-1.3
				c-0.1-0.5-0.2-1-0.2-1.5v-31.6h2.4v30.6C298,401.7,298.1,402.4,298.4,402.8z"/>
			<path class="st0" d="M317.2,370.3h4.4c0.8,0,1.6,0.4,2.3,1.1c0.7,0.7,1.4,1.5,1.9,2.4c0.6,1.6,1.1,3.6,1.4,6
				c0.3,2.4,0.5,5.2,0.5,8.3v0.9c0,1.9-0.1,3.6-0.3,5.2c-0.2,1.5-0.4,2.9-0.7,4.1c-0.3,1.2-0.6,2.2-0.9,3c-0.3,0.8-0.6,1.5-0.9,2
				c-0.4,0.9-1,1.5-1.6,2.1s-1.3,0.8-2,0.8h-4.1V370.3z M319.6,403.5h1.3c0.7-0.1,1.2-0.5,1.7-1.1s0.9-1.4,1.2-2.3
				c0.3-0.9,0.5-1.8,0.7-2.7c0.2-0.9,0.3-1.7,0.4-2.3v0c0-0.1,0-0.2,0-0.4c0-0.1,0-0.2,0-0.4l0.2-3.2c0.1-1.3,0.1-2.7,0.1-4.1
				c0-0.9,0-1.7-0.1-2.6c0-0.9-0.1-1.8-0.2-2.6c-0.1-0.8-0.2-1.5-0.3-2.2c-0.1-0.6-0.2-1.1-0.3-1.5c-0.3-2.1-1-3.5-1.9-4.3
				c-0.3-0.3-0.5-0.5-0.7-0.6c-0.2-0.1-0.5-0.2-0.8-0.2h-1.3V403.5z"/>
			<path class="st0" d="M339,370.3h2.4v35.7H339V370.3z"/>
			<path class="st0" d="M362.2,404.8c-0.5,0.8-1.3,1.2-2.3,1.3h-4.2c-0.6,0-1.1-0.2-1.5-0.5c-0.4-0.3-0.7-0.6-1-1
				c-0.2-0.4-0.4-0.8-0.5-1.3c-0.1-0.5-0.2-1-0.2-1.5v-27.4c0-0.5,0.1-1.1,0.2-1.6c0.1-0.5,0.3-1,0.6-1.3c0.3-0.4,0.6-0.7,1-0.9
				c0.4-0.2,0.9-0.4,1.5-0.4h3.9c1,0.1,1.8,0.5,2.4,1.3c0.6,0.8,0.9,1.6,0.9,2.5v27.9C362.9,403.1,362.7,404,362.2,404.8z
				 M355.2,402.8c0.2,0.4,0.7,0.7,1.6,0.7h2.3c0.6,0,1-0.2,1.2-0.6c0.2-0.4,0.3-1.1,0.3-1.9v-25.4c0-0.9-0.1-1.5-0.3-1.9
				c-0.2-0.4-0.6-0.6-1.2-0.6h-2.9c-0.3,0-0.6,0.2-0.9,0.7c-0.3,0.5-0.4,1.1-0.4,1.8v25.4C354.9,401.7,355,402.4,355.2,402.8z"/>
			<path class="st0" d="M376.5,375.5v9.5c0,0.4,0,0.8,0.1,1.1c0.1,0.3,0.4,0.4,1,0.4h4.2c0.2,0,0.5,0.1,0.8,0.2
				c0.3,0.1,0.6,0.3,0.9,0.6s0.5,0.6,0.7,1c0.2,0.4,0.3,0.8,0.3,1.2v12.5c0,1-0.2,2-0.7,2.8c-0.5,0.8-1.3,1.3-2.5,1.4h-3.9
				c-1-0.1-1.8-0.5-2.4-1.3c-0.6-0.8-0.9-1.6-0.9-2.5v-8.2h2.4v6.9c0,0.9,0.1,1.5,0.3,1.9c0.2,0.4,0.6,0.6,1.2,0.6h2.9
				c0.5,0,0.8-0.2,1-0.7c0.2-0.5,0.3-1.1,0.3-1.8v-10.4c0-0.5-0.1-0.9-0.3-1.1c-0.2-0.2-0.6-0.4-1.3-0.4h-3.5c-0.3,0-0.6-0.1-1-0.2
				c-0.3-0.1-0.7-0.3-1-0.5c-0.3-0.2-0.5-0.6-0.7-1c-0.2-0.4-0.3-0.9-0.3-1.4v-11.5c0-1,0.2-2,0.7-2.8c0.5-0.8,1.3-1.3,2.5-1.4h3.9
				c1,0.1,1.8,0.5,2.4,1.3c0.6,0.8,0.9,1.6,0.9,2.5v8.2h-2.4v-6.8c0-0.9-0.1-1.5-0.3-1.9s-0.6-0.6-1.2-0.6h-2.9
				c-0.5,0-0.9,0.2-1,0.7C376.6,374.1,376.5,374.7,376.5,375.5z"/>
		</g>
		<g>
			<path d="M41.2,406.1h-2.4v-35.7h2.5l5.6,25v-25h2.4v35.7h-2.4l-5.7-24.9V406.1z"/>
			<path d="M70.1,404.8c-0.5,0.8-1.3,1.2-2.3,1.3h-4.2c-0.6,0-1.1-0.2-1.5-0.5c-0.4-0.3-0.7-0.6-1-1c-0.2-0.4-0.4-0.8-0.5-1.3
				c-0.1-0.5-0.2-1-0.2-1.5v-27.4c0-0.5,0.1-1.1,0.2-1.6s0.3-1,0.6-1.3s0.6-0.7,1-0.9c0.4-0.2,0.9-0.4,1.5-0.4h3.9
				c1,0.1,1.8,0.5,2.4,1.3s0.9,1.6,0.9,2.5v27.9C70.9,403.1,70.6,404,70.1,404.8z M63.1,402.8c0.2,0.4,0.7,0.7,1.6,0.7H67
				c0.6,0,1-0.2,1.2-0.6c0.2-0.4,0.3-1.1,0.3-1.9v-25.4c0-0.9-0.1-1.5-0.3-1.9c-0.2-0.4-0.6-0.6-1.2-0.6h-2.9
				c-0.3,0-0.6,0.2-0.9,0.7c-0.3,0.5-0.4,1.1-0.4,1.8v25.4C62.8,401.7,62.9,402.4,63.1,402.8z"/>
			<path d="M82.1,370.3h5.7c0.5,0,1.1,0.2,1.6,0.7c0.6,0.5,1.1,1.2,1.5,2s0.8,1.9,1.1,3.2c0.3,1.2,0.4,2.6,0.4,4.1
				c0,2.7-0.3,4.9-0.9,6.5c-0.6,1.6-1.3,2.7-2.2,3.3c0.5,1,0.9,1.9,1.1,2.7c0.3,0.9,0.5,1.9,0.8,3.1v0l2.2,10.1h-2.7l-1.5-7.5
				c-0.3-1.5-0.6-2.7-0.8-3.6c-0.3-0.9-0.5-1.7-0.8-2.3c-0.2-0.6-0.5-1-0.7-1.3c-0.2-0.3-0.5-0.5-0.7-0.7h-1.9v15.4h-2.4V370.3z
				 M84.5,388.1h2.6c0.6,0,1-0.2,1.4-0.6s0.6-0.9,0.9-1.5c0.2-0.6,0.4-1.3,0.5-2.1s0.2-1.5,0.2-2.3c0-0.2,0-0.4,0-0.6s0-0.3,0-0.5
				c-0.1-0.9-0.2-1.7-0.3-2.6c-0.1-0.9-0.3-1.7-0.5-2.4c-0.2-0.7-0.6-1.3-1-1.8c-0.4-0.5-1-0.7-1.7-0.7h-2.2V388.1z"/>
			<path d="M115.2,370.3v2.6h-4.1v33.1h-2.4V373h-4v-2.6H115.2z"/>
			<path d="M134.4,389h-5.7v17.1h-2.4v-35.7h2.4v16h5.7v-16h2.4v35.7h-2.4V389z"/>
			<path d="M150.3,375.5v9.5c0,0.4,0,0.8,0.1,1.1c0.1,0.3,0.4,0.4,1,0.4h4.2c0.2,0,0.5,0.1,0.8,0.2s0.6,0.3,0.9,0.6s0.5,0.6,0.7,1
				s0.3,0.8,0.3,1.2v12.5c0,1-0.2,2-0.7,2.8c-0.5,0.8-1.3,1.3-2.5,1.4h-3.9c-1-0.1-1.8-0.5-2.4-1.3s-0.9-1.6-0.9-2.5v-8.2h2.4v6.9
				c0,0.9,0.1,1.5,0.3,1.9s0.6,0.6,1.2,0.6h2.9c0.5,0,0.8-0.2,1-0.7c0.2-0.5,0.3-1.1,0.3-1.8v-10.4c0-0.5-0.1-0.9-0.3-1.1
				c-0.2-0.2-0.6-0.4-1.3-0.4h-3.5c-0.3,0-0.6-0.1-1-0.2c-0.3-0.1-0.7-0.3-1-0.5c-0.3-0.2-0.5-0.6-0.7-1c-0.2-0.4-0.3-0.9-0.3-1.4
				v-11.5c0-1,0.2-2,0.7-2.8c0.5-0.8,1.3-1.3,2.5-1.4h3.9c1,0.1,1.8,0.5,2.4,1.3s0.9,1.6,0.9,2.5v8.2H156v-6.8
				c0-0.9-0.1-1.5-0.3-1.9c-0.2-0.4-0.6-0.6-1.2-0.6h-2.9c-0.5,0-0.9,0.2-1,0.7C150.4,374.1,150.3,374.7,150.3,375.5z"/>
			<path d="M180.1,370.3v2.6H176v33.1h-2.4V373h-4v-2.6H180.1z"/>
			<path d="M189.9,406.1h-2.6l5.2-35.7h2.8l5.4,35.7H198l-4.2-28.4L189.9,406.1z"/>
			<path d="M211.8,370.3h5.7c0.5,0,1.1,0.2,1.6,0.7c0.6,0.5,1.1,1.2,1.5,2c0.5,0.9,0.8,1.9,1.1,3.2c0.3,1.2,0.4,2.6,0.4,4.1
				c0,2.7-0.3,4.9-0.9,6.5c-0.6,1.6-1.3,2.7-2.2,3.3c0.5,1,0.9,1.9,1.1,2.7c0.3,0.9,0.5,1.9,0.8,3.1v0l2.2,10.1h-2.7l-1.5-7.5
				c-0.3-1.5-0.6-2.7-0.8-3.6c-0.3-0.9-0.5-1.7-0.8-2.3c-0.2-0.6-0.5-1-0.7-1.3c-0.2-0.3-0.5-0.5-0.7-0.7h-1.9v15.4h-2.4V370.3z
				 M214.3,388.1h2.6c0.6,0,1-0.2,1.4-0.6c0.4-0.4,0.6-0.9,0.9-1.5s0.4-1.3,0.5-2.1s0.2-1.5,0.2-2.3c0-0.2,0-0.4,0-0.6s0-0.3,0-0.5
				c-0.1-0.9-0.2-1.7-0.3-2.6c-0.1-0.9-0.3-1.7-0.5-2.4c-0.2-0.7-0.6-1.3-1-1.8c-0.4-0.5-1-0.7-1.7-0.7h-2.2V388.1z"/>
			<path d="M254.6,375.5v9.5c0,0.4,0,0.8,0.1,1.1c0.1,0.3,0.4,0.4,1,0.4h4.2c0.2,0,0.5,0.1,0.8,0.2c0.3,0.1,0.6,0.3,0.9,0.6
				s0.5,0.6,0.7,1c0.2,0.4,0.3,0.8,0.3,1.2v12.5c0,1-0.2,2-0.7,2.8c-0.5,0.8-1.3,1.3-2.5,1.4h-3.9c-1-0.1-1.8-0.5-2.4-1.3
				c-0.6-0.8-0.9-1.6-0.9-2.5v-8.2h2.4v6.9c0,0.9,0.1,1.5,0.3,1.9c0.2,0.4,0.6,0.6,1.2,0.6h2.9c0.5,0,0.8-0.2,1-0.7
				c0.2-0.5,0.3-1.1,0.3-1.8v-10.4c0-0.5-0.1-0.9-0.3-1.1c-0.2-0.2-0.6-0.4-1.3-0.4h-3.5c-0.3,0-0.6-0.1-1-0.2
				c-0.3-0.1-0.7-0.3-1-0.5c-0.3-0.2-0.5-0.6-0.7-1c-0.2-0.4-0.3-0.9-0.3-1.4v-11.5c0-1,0.2-2,0.7-2.8c0.5-0.8,1.3-1.3,2.5-1.4h3.9
				c1,0.1,1.8,0.5,2.4,1.3c0.6,0.8,0.9,1.6,0.9,2.5v8.2h-2.4v-6.8c0-0.9-0.1-1.5-0.3-1.9s-0.6-0.6-1.2-0.6h-2.9
				c-0.5,0-0.9,0.2-1,0.7C254.7,374.1,254.6,374.7,254.6,375.5z"/>
			<path d="M284.4,370.3v2.6h-4.1v33.1h-2.4V373h-4v-2.6H284.4z"/>
			<path d="M298.4,402.8c0.3,0.4,0.8,0.7,1.6,0.7h2.2c0.6,0,1-0.2,1.2-0.6c0.2-0.4,0.3-1.1,0.3-1.9v-30.6h2.4v31.8
				c0,1-0.3,1.8-0.8,2.6c-0.5,0.8-1.3,1.2-2.3,1.3h-4.2c-0.6,0-1.1-0.2-1.5-0.5c-0.4-0.3-0.7-0.6-1-1c-0.2-0.4-0.4-0.8-0.5-1.3
				c-0.1-0.5-0.2-1-0.2-1.5v-31.6h2.4v30.6C298,401.7,298.1,402.4,298.4,402.8z"/>
			<path d="M317.2,370.3h4.4c0.8,0,1.6,0.4,2.3,1.1c0.7,0.7,1.4,1.5,1.9,2.4c0.6,1.6,1.1,3.6,1.4,6c0.3,2.4,0.5,5.2,0.5,8.3v0.9
				c0,1.9-0.1,3.6-0.3,5.2c-0.2,1.5-0.4,2.9-0.7,4.1c-0.3,1.2-0.6,2.2-0.9,3c-0.3,0.8-0.6,1.5-0.9,2c-0.4,0.9-1,1.5-1.6,2.1
				s-1.3,0.8-2,0.8h-4.1V370.3z M319.6,403.5h1.3c0.7-0.1,1.2-0.5,1.7-1.1s0.9-1.4,1.2-2.3c0.3-0.9,0.5-1.8,0.7-2.7
				c0.2-0.9,0.3-1.7,0.4-2.3v0c0-0.1,0-0.2,0-0.4c0-0.1,0-0.2,0-0.4l0.2-3.2c0.1-1.3,0.1-2.7,0.1-4.1c0-0.9,0-1.7-0.1-2.6
				c0-0.9-0.1-1.8-0.2-2.6c-0.1-0.8-0.2-1.5-0.3-2.2c-0.1-0.6-0.2-1.1-0.3-1.5c-0.3-2.1-1-3.5-1.9-4.3c-0.3-0.3-0.5-0.5-0.7-0.6
				c-0.2-0.1-0.5-0.2-0.8-0.2h-1.3V403.5z"/>
			<path d="M339,370.3h2.4v35.7H339V370.3z"/>
			<path d="M362.2,404.8c-0.5,0.8-1.3,1.2-2.3,1.3h-4.2c-0.6,0-1.1-0.2-1.5-0.5c-0.4-0.3-0.7-0.6-1-1c-0.2-0.4-0.4-0.8-0.5-1.3
				c-0.1-0.5-0.2-1-0.2-1.5v-27.4c0-0.5,0.1-1.1,0.2-1.6c0.1-0.5,0.3-1,0.6-1.3c0.3-0.4,0.6-0.7,1-0.9c0.4-0.2,0.9-0.4,1.5-0.4h3.9
				c1,0.1,1.8,0.5,2.4,1.3c0.6,0.8,0.9,1.6,0.9,2.5v27.9C362.9,403.1,362.7,404,362.2,404.8z M355.2,402.8c0.2,0.4,0.7,0.7,1.6,0.7
				h2.3c0.6,0,1-0.2,1.2-0.6c0.2-0.4,0.3-1.1,0.3-1.9v-25.4c0-0.9-0.1-1.5-0.3-1.9c-0.2-0.4-0.6-0.6-1.2-0.6h-2.9
				c-0.3,0-0.6,0.2-0.9,0.7c-0.3,0.5-0.4,1.1-0.4,1.8v25.4C354.9,401.7,355,402.4,355.2,402.8z"/>
			<path d="M376.5,375.5v9.5c0,0.4,0,0.8,0.1,1.1c0.1,0.3,0.4,0.4,1,0.4h4.2c0.2,0,0.5,0.1,0.8,0.2c0.3,0.1,0.6,0.3,0.9,0.6
				s0.5,0.6,0.7,1c0.2,0.4,0.3,0.8,0.3,1.2v12.5c0,1-0.2,2-0.7,2.8c-0.5,0.8-1.3,1.3-2.5,1.4h-3.9c-1-0.1-1.8-0.5-2.4-1.3
				c-0.6-0.8-0.9-1.6-0.9-2.5v-8.2h2.4v6.9c0,0.9,0.1,1.5,0.3,1.9c0.2,0.4,0.6,0.6,1.2,0.6h2.9c0.5,0,0.8-0.2,1-0.7
				c0.2-0.5,0.3-1.1,0.3-1.8v-10.4c0-0.5-0.1-0.9-0.3-1.1c-0.2-0.2-0.6-0.4-1.3-0.4h-3.5c-0.3,0-0.6-0.1-1-0.2
				c-0.3-0.1-0.7-0.3-1-0.5c-0.3-0.2-0.5-0.6-0.7-1c-0.2-0.4-0.3-0.9-0.3-1.4v-11.5c0-1,0.2-2,0.7-2.8c0.5-0.8,1.3-1.3,2.5-1.4h3.9
				c1,0.1,1.8,0.5,2.4,1.3c0.6,0.8,0.9,1.6,0.9,2.5v8.2h-2.4v-6.8c0-0.9-0.1-1.5-0.3-1.9s-0.6-0.6-1.2-0.6h-2.9
				c-0.5,0-0.9,0.2-1,0.7C376.6,374.1,376.5,374.7,376.5,375.5z"/>
		</g>
		<g>
			<path class="st1" d="M41.2,406.1h-2.4v-35.7h2.5l5.6,25v-25h2.4v35.7h-2.4l-5.7-24.9V406.1z"/>
			<path class="st1" d="M70.1,404.8c-0.5,0.8-1.3,1.2-2.3,1.3h-4.2c-0.6,0-1.1-0.2-1.5-0.5c-0.4-0.3-0.7-0.6-1-1
				c-0.2-0.4-0.4-0.8-0.5-1.3c-0.1-0.5-0.2-1-0.2-1.5v-27.4c0-0.5,0.1-1.1,0.2-1.6s0.3-1,0.6-1.3s0.6-0.7,1-0.9
				c0.4-0.2,0.9-0.4,1.5-0.4h3.9c1,0.1,1.8,0.5,2.4,1.3s0.9,1.6,0.9,2.5v27.9C70.9,403.1,70.6,404,70.1,404.8z M63.1,402.8
				c0.2,0.4,0.7,0.7,1.6,0.7H67c0.6,0,1-0.2,1.2-0.6c0.2-0.4,0.3-1.1,0.3-1.9v-25.4c0-0.9-0.1-1.5-0.3-1.9c-0.2-0.4-0.6-0.6-1.2-0.6
				h-2.9c-0.3,0-0.6,0.2-0.9,0.7c-0.3,0.5-0.4,1.1-0.4,1.8v25.4C62.8,401.7,62.9,402.4,63.1,402.8z"/>
			<path class="st1" d="M82.1,370.3h5.7c0.5,0,1.1,0.2,1.6,0.7c0.6,0.5,1.1,1.2,1.5,2s0.8,1.9,1.1,3.2c0.3,1.2,0.4,2.6,0.4,4.1
				c0,2.7-0.3,4.9-0.9,6.5c-0.6,1.6-1.3,2.7-2.2,3.3c0.5,1,0.9,1.9,1.1,2.7c0.3,0.9,0.5,1.9,0.8,3.1v0l2.2,10.1h-2.7l-1.5-7.5
				c-0.3-1.5-0.6-2.7-0.8-3.6c-0.3-0.9-0.5-1.7-0.8-2.3c-0.2-0.6-0.5-1-0.7-1.3c-0.2-0.3-0.5-0.5-0.7-0.7h-1.9v15.4h-2.4V370.3z
				 M84.5,388.1h2.6c0.6,0,1-0.2,1.4-0.6s0.6-0.9,0.9-1.5c0.2-0.6,0.4-1.3,0.5-2.1s0.2-1.5,0.2-2.3c0-0.2,0-0.4,0-0.6s0-0.3,0-0.5
				c-0.1-0.9-0.2-1.7-0.3-2.6c-0.1-0.9-0.3-1.7-0.5-2.4c-0.2-0.7-0.6-1.3-1-1.8c-0.4-0.5-1-0.7-1.7-0.7h-2.2V388.1z"/>
			<path class="st1" d="M115.2,370.3v2.6h-4.1v33.1h-2.4V373h-4v-2.6H115.2z"/>
			<path class="st1" d="M134.4,389h-5.7v17.1h-2.4v-35.7h2.4v16h5.7v-16h2.4v35.7h-2.4V389z"/>
			<path class="st1" d="M150.3,375.5v9.5c0,0.4,0,0.8,0.1,1.1c0.1,0.3,0.4,0.4,1,0.4h4.2c0.2,0,0.5,0.1,0.8,0.2s0.6,0.3,0.9,0.6
				s0.5,0.6,0.7,1s0.3,0.8,0.3,1.2v12.5c0,1-0.2,2-0.7,2.8c-0.5,0.8-1.3,1.3-2.5,1.4h-3.9c-1-0.1-1.8-0.5-2.4-1.3s-0.9-1.6-0.9-2.5
				v-8.2h2.4v6.9c0,0.9,0.1,1.5,0.3,1.9s0.6,0.6,1.2,0.6h2.9c0.5,0,0.8-0.2,1-0.7c0.2-0.5,0.3-1.1,0.3-1.8v-10.4
				c0-0.5-0.1-0.9-0.3-1.1c-0.2-0.2-0.6-0.4-1.3-0.4h-3.5c-0.3,0-0.6-0.1-1-0.2c-0.3-0.1-0.7-0.3-1-0.5c-0.3-0.2-0.5-0.6-0.7-1
				c-0.2-0.4-0.3-0.9-0.3-1.4v-11.5c0-1,0.2-2,0.7-2.8c0.5-0.8,1.3-1.3,2.5-1.4h3.9c1,0.1,1.8,0.5,2.4,1.3s0.9,1.6,0.9,2.5v8.2H156
				v-6.8c0-0.9-0.1-1.5-0.3-1.9c-0.2-0.4-0.6-0.6-1.2-0.6h-2.9c-0.5,0-0.9,0.2-1,0.7C150.4,374.1,150.3,374.7,150.3,375.5z"/>
			<path class="st1" d="M180.1,370.3v2.6H176v33.1h-2.4V373h-4v-2.6H180.1z"/>
			<path class="st1" d="M189.9,406.1h-2.6l5.2-35.7h2.8l5.4,35.7H198l-4.2-28.4L189.9,406.1z"/>
			<path class="st1" d="M211.8,370.3h5.7c0.5,0,1.1,0.2,1.6,0.7c0.6,0.5,1.1,1.2,1.5,2c0.5,0.9,0.8,1.9,1.1,3.2
				c0.3,1.2,0.4,2.6,0.4,4.1c0,2.7-0.3,4.9-0.9,6.5c-0.6,1.6-1.3,2.7-2.2,3.3c0.5,1,0.9,1.9,1.1,2.7c0.3,0.9,0.5,1.9,0.8,3.1v0
				l2.2,10.1h-2.7l-1.5-7.5c-0.3-1.5-0.6-2.7-0.8-3.6c-0.3-0.9-0.5-1.7-0.8-2.3c-0.2-0.6-0.5-1-0.7-1.3c-0.2-0.3-0.5-0.5-0.7-0.7
				h-1.9v15.4h-2.4V370.3z M214.3,388.1h2.6c0.6,0,1-0.2,1.4-0.6c0.4-0.4,0.6-0.9,0.9-1.5s0.4-1.3,0.5-2.1s0.2-1.5,0.2-2.3
				c0-0.2,0-0.4,0-0.6s0-0.3,0-0.5c-0.1-0.9-0.2-1.7-0.3-2.6c-0.1-0.9-0.3-1.7-0.5-2.4c-0.2-0.7-0.6-1.3-1-1.8
				c-0.4-0.5-1-0.7-1.7-0.7h-2.2V388.1z"/>
			<path class="st1" d="M254.6,375.5v9.5c0,0.4,0,0.8,0.1,1.1c0.1,0.3,0.4,0.4,1,0.4h4.2c0.2,0,0.5,0.1,0.8,0.2
				c0.3,0.1,0.6,0.3,0.9,0.6s0.5,0.6,0.7,1c0.2,0.4,0.3,0.8,0.3,1.2v12.5c0,1-0.2,2-0.7,2.8c-0.5,0.8-1.3,1.3-2.5,1.4h-3.9
				c-1-0.1-1.8-0.5-2.4-1.3c-0.6-0.8-0.9-1.6-0.9-2.5v-8.2h2.4v6.9c0,0.9,0.1,1.5,0.3,1.9c0.2,0.4,0.6,0.6,1.2,0.6h2.9
				c0.5,0,0.8-0.2,1-0.7c0.2-0.5,0.3-1.1,0.3-1.8v-10.4c0-0.5-0.1-0.9-0.3-1.1c-0.2-0.2-0.6-0.4-1.3-0.4h-3.5c-0.3,0-0.6-0.1-1-0.2
				c-0.3-0.1-0.7-0.3-1-0.5c-0.3-0.2-0.5-0.6-0.7-1c-0.2-0.4-0.3-0.9-0.3-1.4v-11.5c0-1,0.2-2,0.7-2.8c0.5-0.8,1.3-1.3,2.5-1.4h3.9
				c1,0.1,1.8,0.5,2.4,1.3c0.6,0.8,0.9,1.6,0.9,2.5v8.2h-2.4v-6.8c0-0.9-0.1-1.5-0.3-1.9s-0.6-0.6-1.2-0.6h-2.9
				c-0.5,0-0.9,0.2-1,0.7C254.7,374.1,254.6,374.7,254.6,375.5z"/>
			<path class="st1" d="M284.4,370.3v2.6h-4.1v33.1h-2.4V373h-4v-2.6H284.4z"/>
			<path class="st1" d="M298.4,402.8c0.3,0.4,0.8,0.7,1.6,0.7h2.2c0.6,0,1-0.2,1.2-0.6c0.2-0.4,0.3-1.1,0.3-1.9v-30.6h2.4v31.8
				c0,1-0.3,1.8-0.8,2.6c-0.5,0.8-1.3,1.2-2.3,1.3h-4.2c-0.6,0-1.1-0.2-1.5-0.5c-0.4-0.3-0.7-0.6-1-1c-0.2-0.4-0.4-0.8-0.5-1.3
				c-0.1-0.5-0.2-1-0.2-1.5v-31.6h2.4v30.6C298,401.7,298.1,402.4,298.4,402.8z"/>
			<path class="st1" d="M317.2,370.3h4.4c0.8,0,1.6,0.4,2.3,1.1c0.7,0.7,1.4,1.5,1.9,2.4c0.6,1.6,1.1,3.6,1.4,6
				c0.3,2.4,0.5,5.2,0.5,8.3v0.9c0,1.9-0.1,3.6-0.3,5.2c-0.2,1.5-0.4,2.9-0.7,4.1c-0.3,1.2-0.6,2.2-0.9,3c-0.3,0.8-0.6,1.5-0.9,2
				c-0.4,0.9-1,1.5-1.6,2.1s-1.3,0.8-2,0.8h-4.1V370.3z M319.6,403.5h1.3c0.7-0.1,1.2-0.5,1.7-1.1s0.9-1.4,1.2-2.3
				c0.3-0.9,0.5-1.8,0.7-2.7c0.2-0.9,0.3-1.7,0.4-2.3v0c0-0.1,0-0.2,0-0.4c0-0.1,0-0.2,0-0.4l0.2-3.2c0.1-1.3,0.1-2.7,0.1-4.1
				c0-0.9,0-1.7-0.1-2.6c0-0.9-0.1-1.8-0.2-2.6c-0.1-0.8-0.2-1.5-0.3-2.2c-0.1-0.6-0.2-1.1-0.3-1.5c-0.3-2.1-1-3.5-1.9-4.3
				c-0.3-0.3-0.5-0.5-0.7-0.6c-0.2-0.1-0.5-0.2-0.8-0.2h-1.3V403.5z"/>
			<path class="st1" d="M339,370.3h2.4v35.7H339V370.3z"/>
			<path class="st1" d="M362.2,404.8c-0.5,0.8-1.3,1.2-2.3,1.3h-4.2c-0.6,0-1.1-0.2-1.5-0.5c-0.4-0.3-0.7-0.6-1-1
				c-0.2-0.4-0.4-0.8-0.5-1.3c-0.1-0.5-0.2-1-0.2-1.5v-27.4c0-0.5,0.1-1.1,0.2-1.6c0.1-0.5,0.3-1,0.6-1.3c0.3-0.4,0.6-0.7,1-0.9
				c0.4-0.2,0.9-0.4,1.5-0.4h3.9c1,0.1,1.8,0.5,2.4,1.3c0.6,0.8,0.9,1.6,0.9,2.5v27.9C362.9,403.1,362.7,404,362.2,404.8z
				 M355.2,402.8c0.2,0.4,0.7,0.7,1.6,0.7h2.3c0.6,0,1-0.2,1.2-0.6c0.2-0.4,0.3-1.1,0.3-1.9v-25.4c0-0.9-0.1-1.5-0.3-1.9
				c-0.2-0.4-0.6-0.6-1.2-0.6h-2.9c-0.3,0-0.6,0.2-0.9,0.7c-0.3,0.5-0.4,1.1-0.4,1.8v25.4C354.9,401.7,355,402.4,355.2,402.8z"/>
			<path class="st1" d="M376.5,375.5v9.5c0,0.4,0,0.8,0.1,1.1c0.1,0.3,0.4,0.4,1,0.4h4.2c0.2,0,0.5,0.1,0.8,0.2
				c0.3,0.1,0.6,0.3,0.9,0.6s0.5,0.6,0.7,1c0.2,0.4,0.3,0.8,0.3,1.2v12.5c0,1-0.2,2-0.7,2.8c-0.5,0.8-1.3,1.3-2.5,1.4h-3.9
				c-1-0.1-1.8-0.5-2.4-1.3c-0.6-0.8-0.9-1.6-0.9-2.5v-8.2h2.4v6.9c0,0.9,0.1,1.5,0.3,1.9c0.2,0.4,0.6,0.6,1.2,0.6h2.9
				c0.5,0,0.8-0.2,1-0.7c0.2-0.5,0.3-1.1,0.3-1.8v-10.4c0-0.5-0.1-0.9-0.3-1.1c-0.2-0.2-0.6-0.4-1.3-0.4h-3.5c-0.3,0-0.6-0.1-1-0.2
				c-0.3-0.1-0.7-0.3-1-0.5c-0.3-0.2-0.5-0.6-0.7-1c-0.2-0.4-0.3-0.9-0.3-1.4v-11.5c0-1,0.2-2,0.7-2.8c0.5-0.8,1.3-1.3,2.5-1.4h3.9
				c1,0.1,1.8,0.5,2.4,1.3c0.6,0.8,0.9,1.6,0.9,2.5v8.2h-2.4v-6.8c0-0.9-0.1-1.5-0.3-1.9s-0.6-0.6-1.2-0.6h-2.9
				c-0.5,0-0.9,0.2-1,0.7C376.6,374.1,376.5,374.7,376.5,375.5z"/>
		</g>
	</g>
</g>
</svg>
